<?xml version="1.0" standalone="no"?>
<svg id="svg-pc" width="40" height="50" viewBox="0 0 40 50" fill="none" xmlns="http://www.w3.org/2000/svg">
                    <path d="M2 38 L20 46 L38 38 L20 30 Z" fill="rgba(0,0,0,0.3)"/>

                    <path d="M20 46 V10 L38 2 V38 Z" fill="#a8a29e" stroke="#57534e" stroke-width="0.5"/>
                    
                    <path d="M2 38 V2 L20 10 V46 Z" fill="#e7e5e4" stroke="#57534e" stroke-width="0.5"/>

                    <path d="M2 2 L20 10 L38 2 L20 -6 Z" fill="#f5f5f4" stroke="#57534e" stroke-width="0.5"/>

                    <path d="M6 6 L16 10.5 V14 L6 9.5 Z" fill="#d6d3d1" stroke="#a8a29e" stroke-width="0.5"/>
                    <rect x="7" y="9" width="6" height="1" transform="skewY(24)" fill="#444"/>

                    <path d="M6 16 L16 20.5 V23 L6 18.5 Z" fill="#d6d3d1" stroke="#a8a29e" stroke-width="0.5"/>
                    <rect x="7" y="19" width="5" height="0.5" transform="skewY(24)" fill="#444"/>

                    <circle cx="14" cy="30" r="1.5" fill="#22c55e" stroke="#14532d" stroke-width="0.5"/>
                    
                    <path d="M5 38 L12 41" stroke="#a8a29e" stroke-width="1"/>
                    <path d="M5 36 L12 39" stroke="#a8a29e" stroke-width="1"/>
                    <path d="M5 34 L12 37" stroke="#a8a29e" stroke-width="1"/>

                    <path d="M17 10 V45" stroke="#d6d3d1" stroke-width="0.5"/>

                </svg>