<?xml version="1.0" standalone="no"?>
<svg id="svg-rack-double" width="140" height="130" viewBox="0 0 140 130" fill="none" xmlns="http://www.w3.org/2000/svg">
                    <defs>
                        <pattern id="gridPatternWide" width="4" height="2" patternUnits="userSpaceOnUse">
                            <path d="M0 1 L4 1 M2 0 L2 2" stroke="#334155" stroke-width="0.5"></path>
                        </pattern>
                        <linearGradient id="metalGradWide" x1="0" y1="0" x2="1" y2="0">
                            <stop offset="0%" stop-color="#94a3b8"></stop>
                            <stop offset="100%" stop-color="#64748b"></stop>
                        </linearGradient>
                    </defs>
                    
                    <path d="M35 10 V115" stroke="#475569" stroke-width="3" stroke-linecap="round"></path> <path d="M105 10 V115" stroke="#475569" stroke-width="3" stroke-linecap="round"></path> <g transform="translate(0, 100)">
                        <polygon points="2,10 35,0 138,10 105,20" fill="url(#gridPatternWide)" stroke="#64748b" stroke-width="1"></polygon>
                        <polyline points="2,10 2,13 70,23 138,13 138,10" fill="none" stroke="#475569" stroke-width="2"></polyline>
                    </g>
                     <g transform="translate(0, 65)">
                        <polygon points="2,10 35,0 138,10 105,20" fill="url(#gridPatternWide)" stroke="#64748b" stroke-width="1"></polygon>
                        <polyline points="2,10 2,13 70,23 138,13 138,10" fill="none" stroke="#475569" stroke-width="2"></polyline>
                    </g>
                     <g transform="translate(0, 30)">
                        <polygon points="2,10 35,0 138,10 105,20" fill="url(#gridPatternWide)" stroke="#64748b" stroke-width="1"></polygon>
                        <polyline points="2,10 2,13 70,23 138,13 138,10" fill="none" stroke="#475569" stroke-width="2"></polyline>
                    </g>

                    <path d="M2 8 V118" stroke="url(#metalGradWide)" stroke-width="3" stroke-linecap="round"></path> <path d="M70 8 V118" stroke="url(#metalGradWide)" stroke-width="3" stroke-linecap="round"></path> <path d="M138 8 V118" stroke="url(#metalGradWide)" stroke-width="3" stroke-linecap="round"></path> <g fill="#cbd5e1"><ellipse cx="2" cy="5" rx="3" ry="1.5"></ellipse><ellipse cx="70" cy="5" rx="3" ry="1.5"></ellipse><ellipse cx="138" cy="5" rx="3" ry="1.5"></ellipse></g>
                    <g fill="#1e293b"><ellipse cx="2" cy="120" rx="3" ry="1.5"></ellipse><ellipse cx="70" cy="120" rx="3" ry="1.5"></ellipse><ellipse cx="138" cy="120" rx="3" ry="1.5"></ellipse></g>
                </svg>