<?xml version="1.0" standalone="no"?>
<svg id="svg-rack" width="64" height="100" viewBox="0 0 64 100" fill="none" xmlns="http://www.w3.org/2000/svg">
                    <defs>
                        <pattern id="gridPattern" width="4" height="2" patternUnits="userSpaceOnUse">
                            <path d="M0 2 L4 0 M2 2 L2 0" stroke="#475569" stroke-width="0.5"/>
                        </pattern>
                    </defs>
                    
                    <path d="M4 10 L4 90" stroke="#64748b" stroke-width="2"/>
                    <path d="M60 10 L60 90" stroke="#64748b" stroke-width="2"/>

                    <path d="M4 85 L32 98 L60 85 L32 72 Z" fill="url(#gridPattern)" stroke="#94a3b8" stroke-width="1"/>
                    <path d="M4 85 L4 88 L32 100 L60 88 L60 85" stroke="#475569" stroke-width="1" fill="none"/>

                    <path d="M4 50 L32 63 L60 50 L32 37 Z" fill="url(#gridPattern)" stroke="#94a3b8" stroke-width="1"/>
                    <path d="M4 50 L4 53 L32 66 L60 53 L60 50" stroke="#475569" stroke-width="1" fill="none"/>

                    <path d="M4 15 L32 28 L60 15 L32 2 Z" fill="url(#gridPattern)" stroke="#94a3b8" stroke-width="1"/>
                    <path d="M4 15 L4 18 L32 31 L60 18 L60 15" stroke="#475569" stroke-width="1" fill="none"/>

                    <path d="M4 2 L4 98" stroke="#cbd5e1" stroke-width="2"/> <path d="M60 2 L60 98" stroke="#cbd5e1" stroke-width="2"/> <path d="M32 98 L32 100" stroke="#cbd5e1" stroke-width="2"/> <ellipse cx="4" cy="2" rx="2" ry="1" fill="#cbd5e1"/>
                    <ellipse cx="60" cy="2" rx="2" ry="1" fill="#cbd5e1"/>
                    <ellipse cx="4" cy="98" rx="2" ry="1" fill="#000"/>
                    <ellipse cx="60" cy="98" rx="2" ry="1" fill="#000"/>
                </svg>